<svg data-name="Layer 1" xmlns="http://www.w3.org/2000/svg" width="483.12" height="483.12"><defs><linearGradient id="b" x1="13.29" y1="249.82" x2="494.15" y2="249.78" gradientTransform="rotate(90 250 241.36)" gradientUnits="userSpaceOnUse"><stop offset="0" stop-color="#dd1f26"/><stop offset=".16" stop-color="#f37b35"/><stop offset=".33" stop-color="#f1d456"/><stop offset=".51" stop-color="#3fb772"/><stop offset=".68" stop-color="#61c6cc"/><stop offset=".83" stop-color="#2a7cbf"/><stop offset="1" stop-color="#483b92"/></linearGradient><clipPath id="a" transform="translate(-8.64 -8.24)"><path d="M406.05 405.65A220.42 220.42 0 10250.2 470.2a219.71 219.71 0 00155.85-64.55m85.71-155.85A241.56 241.56 0 11421 79a240.87 240.87 0 0170.76 170.8z" fill="none" clip-rule="evenodd"/></clipPath></defs><ellipse cx="245.18" cy="237.09" rx="233.17" ry="224.87" fill="#f2f2f2"/><path d="M440.13 241.56a198.66 198.66 0 01-135.37 188.3 118.31 118.31 0 004-197.38l-79.27-61.64a18.77 18.77 0 00-23 29.63l85.09 66.17a18.46 18.46 0 002.4 1.59 80.87 80.87 0 11-113 8.1l-27.74-25.13a118.3 118.3 0 0025.12 178.66 198.65 198.65 0 010-376.6 118.3 118.3 0 00-4 197.37l79.27 61.65a18.77 18.77 0 0023-29.63l-85.09-66.17a18.46 18.46 0 00-2.4-1.59 80.87 80.87 0 11113-8.1l27.74 25.13a118.3 118.3 0 00-25.12-178.66 198.66 198.66 0 01135.37 188.3" fill="#ed2530" fill-rule="evenodd"/><g clip-path="url(#a)"><path fill="url(#b)" d="M0 0h483.12v483.12H0z"/></g></svg>